<svg width="38" height="38" viewBox="0 0 38 38" fill="none" xmlns="http://www.w3.org/2000/svg">
<path d="M20.9 34.0822C24.7328 33.5945 28.2362 31.6657 30.6979 28.6877C33.1597 25.7097 34.3952 21.9061 34.1532 18.0499C33.9113 14.1938 32.2101 10.5744 29.3954 7.92752C26.5807 5.28062 22.8637 3.80479 19 3.8C15.1315 3.79712 11.4075 5.26934 8.58674 7.91669C5.76599 10.564 4.06076 14.1873 3.81851 18.0482C3.57627 21.9091 4.81524 25.717 7.28297 28.6962C9.75071 31.6754 13.2615 33.6015 17.1 34.0822V22.8H13.3V19H17.1V15.8574C17.1 13.3171 17.366 12.3956 17.86 11.4665C18.3465 10.5472 19.0987 9.79571 20.0184 9.31C20.7442 8.9205 21.6467 8.6868 23.2237 8.5861C23.8488 8.5462 24.6582 8.5956 25.6519 8.7381V12.3481H24.7019C22.9596 12.3481 22.2395 12.4298 21.8101 12.6597C21.554 12.7916 21.3454 13.0002 21.2135 13.2563C20.9855 13.6857 20.9019 14.1113 20.9019 15.8555V19H25.6519L24.7019 22.8H20.9019L20.9 34.0822ZM19 38C8.5063 38 0 29.4937 0 19C0 8.5063 8.5063 0 19 0C29.4937 0 38 8.5063 38 19C38 29.4937 29.4937 38 19 38Z" fill="#02CDCF"/>
</svg>
