<svg width="43" height="41" viewBox="0 0 43 41" fill="none" xmlns="http://www.w3.org/2000/svg">
<path d="M17.7198 11.7246V24.5219L28.1302 30.7072L29.9022 28.1478L21.0423 23.0288V11.7246H17.7198Z" fill="black"/>
<path d="M35.2626 18.8782C35.5965 20.9982 35.4493 23.1626 34.8311 25.2225C34.2129 27.2824 33.1384 29.1889 31.6817 30.8105C30.2249 32.4322 28.4205 33.7306 26.3926 34.6164C24.3647 35.5021 22.1616 35.9541 19.9349 35.9412C11.2964 35.9412 4.42998 29.3293 4.42998 21.0111C4.42998 12.6929 11.2964 6.081 19.9349 6.081C21.4854 6.081 22.9694 6.29428 24.3649 6.69953V2.30581C22.9473 1.98588 21.4632 1.81525 19.9349 1.81525C8.85995 1.81525 0 10.3467 0 21.0111C0 31.6755 8.85995 40.207 19.9349 40.207C22.7428 40.2182 25.5212 39.6558 28.0868 38.5568C30.6523 37.4578 32.9465 35.8472 34.8179 33.8315C36.6894 31.8157 38.0955 29.4406 38.9434 26.863C39.7914 24.2854 40.0618 21.5639 39.7369 18.8782H35.2626Z" fill="black"/>
<path d="M36.355 6.60566V0.207031H31.9251V6.60566H25.2801V10.8714H31.9251V17.27H36.355V10.8714H43V6.60566H36.355Z" fill="black"/>
</svg>
